<?xml version="1.0" encoding="UTF-8" standalone="no"?><!DOCTYPE svg PUBLIC "-//W3C//DTD SVG 1.1//EN" "http://www.w3.org/Graphics/SVG/1.1/DTD/svg11.dtd"><svg width="100%" height="100%" viewBox="0 0 512 512" version="1.1" xmlns="http://www.w3.org/2000/svg" xmlns:xlink="http://www.w3.org/1999/xlink" xml:space="preserve" xmlns:serif="http://www.serif.com/" style="fill-rule:evenodd;clip-rule:evenodd;stroke-linejoin:round;stroke-miterlimit:2;"><path d="M9.707,352.256l234.005,156.032c7.979,4.907 16.512,4.971 24.576,0l234.005,-156.032c5.995,-3.989 9.707,-11.136 9.707,-18.283l0,-155.989c0,-7.147 -3.712,-14.293 -9.707,-18.283l-234.005,-156.01c-7.979,-4.907 -16.512,-4.95 -24.576,0l-234.005,156.01c-5.995,3.99 -9.707,11.136 -9.707,18.283l0,155.989c0,7.147 3.712,14.294 9.707,18.283Zm224.298,96.597l-172.288,-114.858l76.864,-51.435l95.424,63.723l0,102.57Zm43.99,0l0,-102.57l95.424,-63.723l76.864,51.435l-172.288,114.858Zm190.016,-156.032l-55.147,-36.842l55.147,-36.864l0,73.706Zm-190.016,-229.696l172.288,114.859l-76.864,51.435l-95.424,-63.723l0,-102.571Zm-21.995,140.843l77.717,52.011l-77.717,52.01l-77.717,-52.01l77.717,-52.011Zm-21.995,-140.843l0,102.571l-95.424,63.723l-76.864,-51.435l172.288,-114.859Zm-189.994,156.032l0,-0.021l55.146,36.864l-55.146,36.864l0,-73.707Z" style="fill:#fff;fill-rule:nonzero;"/></svg>