<?xml version="1.0" encoding="UTF-8" standalone="no"?>
<!DOCTYPE svg PUBLIC "-//W3C//DTD SVG 1.1//EN" "http://www.w3.org/Graphics/SVG/1.1/DTD/svg11.dtd">
<svg width="100%" height="100%" viewBox="0 0 2500 2321" version="1.1" xmlns="http://www.w3.org/2000/svg" xmlns:xlink="http://www.w3.org/1999/xlink" xml:space="preserve" xmlns:serif="http://www.serif.com/" style="fill-rule:evenodd;clip-rule:evenodd;stroke-linejoin:round;stroke-miterlimit:2;">
    <path d="M711.818,913.324C691.717,898.3 671.563,890.787 651.462,890.787L561.109,890.787L561.109,1432.03L651.514,1432.03C671.615,1432.03 691.768,1424.51 711.87,1409.49C731.971,1394.46 742.022,1371.93 742.022,1341.83L742.022,980.985C741.97,950.936 731.868,928.348 711.818,913.324ZM2183.06,0L316.937,0C191.562,0 89.811,101.492 89.5,226.919L89.5,2094.08C89.811,2219.51 191.562,2321 316.937,2321L2183.06,2321C2308.49,2321 2410.19,2219.51 2410.5,2094.08L2410.5,226.919C2410.19,101.492 2308.44,0 2183.06,0ZM888.38,1342.81C888.38,1440.26 828.231,1587.92 637.836,1587.61L397.447,1587.61L397.447,730.39L642.913,730.39C826.521,730.39 888.276,877.835 888.328,975.338L888.38,1342.81ZM1409.98,883.482L1133.95,883.482L1133.95,1082.53L1302.69,1082.53L1302.69,1235.73L1133.95,1235.73L1133.95,1434.72L1410.04,1434.72L1410.04,1587.92L1087.89,1587.92C1030.08,1589.42 981.997,1543.72 980.546,1485.91L980.546,837.736C979.148,779.97 1024.89,731.996 1082.66,730.545L1410.04,730.545L1409.98,883.482ZM1946.92,1480.78C1878.54,1640.09 1756.01,1608.38 1701.14,1480.78L1501.53,730.597L1670.27,730.597L1824.19,1319.76L1977.38,730.597L2146.18,730.597L1946.92,1480.78Z" style="fill:white;fill-rule:nonzero;"/>
</svg>
