<?xml version="1.0" encoding="UTF-8" standalone="no"?><!DOCTYPE svg PUBLIC "-//W3C//DTD SVG 1.1//EN" "http://www.w3.org/Graphics/SVG/1.1/DTD/svg11.dtd"><svg width="100%" height="100%" viewBox="0 0 512 512" version="1.1" xmlns="http://www.w3.org/2000/svg" xmlns:xlink="http://www.w3.org/1999/xlink" xml:space="preserve" xmlns:serif="http://www.serif.com/" style="fill-rule:evenodd;clip-rule:evenodd;stroke-linejoin:round;stroke-miterlimit:2;"><path d="M256,10.667c-141.44,0 -256,112.64 -256,251.562c0,111.168 73.344,205.44 175.04,238.678c12.8,2.368 17.493,-5.419 17.493,-12.096c0,-5.974 -0.213,-21.803 -0.32,-42.774c-71.21,15.168 -86.229,-33.749 -86.229,-33.749c-11.648,-29.035 -28.48,-36.8 -28.48,-36.8c-23.189,-15.595 1.792,-15.275 1.792,-15.275c25.707,1.75 39.211,25.92 39.211,25.92c22.826,38.464 59.925,27.35 74.56,20.928c2.304,-16.277 8.896,-27.349 16.213,-33.642c-56.853,-6.294 -116.608,-27.926 -116.608,-124.31c0,-27.456 9.92,-49.898 26.347,-67.498c-2.88,-6.358 -11.52,-31.936 2.24,-66.582c0,0 21.44,-6.741 70.4,25.792c20.48,-5.589 42.24,-8.362 64,-8.49c21.76,0.128 43.52,2.901 64,8.49c48.64,-32.533 70.08,-25.792 70.08,-25.792c13.76,34.646 5.12,60.224 2.56,66.582c16.32,17.6 26.24,40.042 26.24,67.498c0,96.64 -59.84,117.91 -116.8,124.096c8.96,7.552 17.28,22.976 17.28,46.55c0,33.664 -0.32,60.714 -0.32,68.885c0,6.592 4.48,14.464 17.6,11.947c102.421,-33.024 175.701,-127.36 175.701,-238.358c0,-138.922 -114.624,-251.562 -256,-251.562Z" style="fill:#fff;fill-rule:nonzero;"/></svg>