<?xml version="1.0" encoding="UTF-8" standalone="no"?><!DOCTYPE svg PUBLIC "-//W3C//DTD SVG 1.1//EN" "http://www.w3.org/Graphics/SVG/1.1/DTD/svg11.dtd"><svg width="100%" height="100%" viewBox="0 0 512 512" version="1.1" xmlns="http://www.w3.org/2000/svg" xmlns:xlink="http://www.w3.org/1999/xlink" xml:space="preserve" xmlns:serif="http://www.serif.com/" style="fill-rule:evenodd;clip-rule:evenodd;stroke-linejoin:round;stroke-miterlimit:2;"><path d="M256,0c-141.363,0 -256,114.637 -256,256c0,141.363 114.637,256 256,256c141.363,0 256,-114.637 256,-256c0,-141.363 -114.637,-256 -256,-256Zm-74.391,387l-62.347,0l0,-187.574l62.347,0l0,187.574Zm-31.171,-213.188l-0.407,0.001c-20.922,0 -34.453,-14.403 -34.453,-32.403c0,-18.406 13.945,-32.41 35.274,-32.41c21.328,0 34.453,14.004 34.859,32.41c0,18 -13.531,32.403 -35.273,32.403Zm255.984,213.187l-62.34,0l0,-100.348c0,-25.218 -9.027,-42.418 -31.586,-42.418c-17.223,0 -27.48,11.602 -31.988,22.801c-1.649,4.008 -2.051,9.61 -2.051,15.215l0,104.75l-62.344,0c0,0 0.817,-169.977 0,-187.574l62.344,0l0,26.558c8.285,-12.781 23.109,-30.961 56.188,-30.961c41.019,0 71.777,26.809 71.777,84.422l0,107.555Z" style="fill:#fff;fill-rule:nonzero;"/></svg>